<svg width="600" height="350" viewBox="0 0 200 800" fill="none" xmlns="http://www.w3.org/2000/svg">
<path d="M189.018 150.586C175.464 159.814 162.884 172.032 150.692 182.871C144.822 188.092 105.574 222.502 98.8838 206.908C95.544 199.144 115.071 177.184 122.293 168.509C135.171 153.031 148.367 138.077 159.861 121.717C159.909 121.642 159.929 121.554 159.919 121.467C159.908 121.38 159.868 121.298 159.804 121.235C159.74 121.172 159.655 121.131 159.564 121.118C159.472 121.105 159.379 121.121 159.298 121.163C134.28 135.564 116.905 156.913 95.9845 175.583C91.2309 179.824 84.7868 184.851 78.2813 185.937C58.2321 189.305 67.7598 164.715 72.0217 157.233C81.6621 140.319 98.474 121.823 113.749 107.073C113.988 106.847 113.968 106.643 113.688 106.462C110.368 104.385 100.277 99.4752 109.2 95.5451C115.839 92.6274 122.498 89.7615 129.178 86.9474C133.44 85.1521 137.046 85.385 136.37 90.8192C135.468 98.0519 134.673 105.291 133.983 112.537C133.214 120.63 126.678 115.06 123.4 113.546C123.038 113.378 122.731 113.439 122.478 113.73C107.428 131.12 90.0322 149.742 80.5147 170.479C80.2278 171.1 80.3644 171.204 80.9245 170.789C94.96 160.523 107.592 146.821 120.07 134.846C127.559 127.655 161.91 99.4849 172.698 107.937C178.118 112.178 175.157 120.756 172.022 125.715C160.241 144.337 142.937 164.065 129.496 179.183C125.917 183.207 122.775 187.115 120.07 190.906C119.599 191.579 119.719 191.692 120.429 191.245C142.332 177.582 160.978 160.649 180.833 144.599C185.125 141.134 195.944 132.847 201.866 135.749C214.6 141.969 190.238 165.433 184.296 170.683C181.816 172.876 177.462 171.352 179.316 168.169C182.684 162.412 186.034 156.648 189.367 150.877C189.701 150.301 189.585 150.204 189.018 150.586Z" fill="#417586"/>
<path d="M173.809 178.31C174.947 179.283 177.047 178.687 178.499 176.978C179.951 175.268 180.206 173.093 179.067 172.119C177.929 171.145 175.829 171.741 174.377 173.45C172.925 175.16 172.67 177.336 173.809 178.31Z" fill="#417586"/>
<path d="M167.99 184.955C169.129 185.929 171.229 185.332 172.681 183.623C174.133 181.913 174.387 179.738 173.249 178.764C172.11 177.79 170.01 178.386 168.558 180.095C167.106 181.805 166.852 183.981 167.99 184.955Z" fill="#417586"/>
<path d="M161.971 191.801C163.109 192.775 165.209 192.179 166.662 190.469C168.114 188.759 168.368 186.584 167.23 185.61C166.091 184.636 163.991 185.232 162.539 186.942C161.087 188.652 160.832 190.827 161.971 191.801Z" fill="#417586"/>
<path d="M156.269 197.934C157.305 198.82 159.217 198.277 160.539 196.721C161.861 195.165 162.092 193.185 161.056 192.298C160.02 191.412 158.108 191.954 156.786 193.511C155.464 195.067 155.233 197.047 156.269 197.934Z" fill="#417586"/>
<path d="M151.034 203.52C152.006 204.351 153.797 203.843 155.036 202.384C156.275 200.925 156.492 199.069 155.521 198.238C154.55 197.407 152.758 197.916 151.519 199.375C150.28 200.833 150.063 202.689 151.034 203.52Z" fill="#417586"/>
<circle cx="133.5" cy="147.5" r="89.8" stroke="#417586" stroke-width="9.4"/>
</svg>
