<svg width="800" height="200" viewBox="0 0 800 200" fill="none" xmlns="http://www.w3.org/2000/svg">
<path d="M342.56 186.7C343.54 188.94 342.56 191.6 340.32 192.58C339.62 192.86 339.06 193 338.5 193C336.68 193 335.14 192.02 334.44 190.34L323.94 166.54H274.24L263.88 190.34C262.9 192.58 260.24 193.56 258 192.58C255.76 191.6 254.64 188.94 255.62 186.7L294.96 96.82C295.8 95.14 297.34 94.16 299.16 94.16C300.84 94.16 302.52 95.14 303.22 96.82L342.56 186.7ZM278.16 157.58H320.02L299.16 109.7L278.16 157.58ZM381.833 117.4C384.353 117.4 386.313 119.36 386.313 121.74C386.313 124.26 384.353 126.22 381.833 126.22C369.513 126.22 360.133 136.3 360.133 149.6V150.3C360.133 150.44 360.133 150.58 360.133 150.72V188.52C360.133 191.04 358.173 193 355.653 193C353.273 193 351.313 191.04 351.313 188.52V121.74C351.313 119.36 353.273 117.4 355.653 117.4C358.173 117.4 360.133 119.36 360.133 121.74V126.36C365.593 120.76 373.153 117.4 381.833 117.4ZM452.193 117.4C454.573 117.4 456.673 119.36 456.673 121.74V198.74C456.673 216.8 441.973 231.5 423.913 231.5C412.013 231.5 401.093 225.06 395.213 214.56C394.093 212.46 394.793 209.8 397.033 208.54C399.133 207.42 401.933 208.12 403.053 210.36C407.253 217.92 415.233 222.54 423.913 222.54C437.073 222.54 447.713 211.9 447.713 198.74V183.76C442.113 189.5 434.413 193 425.733 193C408.093 193 394.653 179 394.653 160.24V121.74C394.653 119.36 396.753 117.4 399.133 117.4C401.653 117.4 403.613 119.36 403.613 121.74V160.24C403.613 173.82 413.133 184.04 425.733 184.04C438.193 184.04 447.713 173.82 447.713 160.24V121.74C447.713 119.36 449.673 117.4 452.193 117.4ZM518.123 127.06C523.303 132.94 526.103 140.92 526.103 149.6V188.52C526.103 191.04 524.143 193 521.763 193C519.243 193 517.283 191.04 517.283 188.52V149.6C517.283 136.16 508.463 126.22 496.283 126.22C483.683 126.22 473.883 136.58 473.883 149.6V150.3C473.883 150.44 473.883 150.58 473.883 150.72V188.52C473.883 191.04 471.923 193 469.403 193C467.023 193 465.063 191.04 465.063 188.52V121.74C465.063 119.36 467.023 117.4 469.403 117.4C471.923 117.4 473.883 119.36 473.883 121.74V126.78C479.623 120.9 487.463 117.4 496.283 117.4C504.823 117.4 512.663 120.76 518.123 127.06Z" fill="#417586"/>
<path d="M189.019 150.586C175.465 159.814 162.884 172.032 150.692 182.871C144.822 188.092 105.574 222.502 98.884 206.908C95.5442 199.144 115.071 177.184 122.294 168.509C135.171 153.031 148.367 138.077 159.862 121.717C159.909 121.642 159.93 121.554 159.919 121.467C159.909 121.38 159.868 121.298 159.804 121.235C159.74 121.172 159.655 121.131 159.564 121.118C159.473 121.105 159.379 121.121 159.298 121.163C134.28 135.564 116.905 156.913 95.9847 175.583C91.2311 179.824 84.7871 184.851 78.2816 185.937C58.2323 189.305 67.7601 164.715 72.0219 157.233C81.6624 140.319 98.4743 121.823 113.749 107.073C113.988 106.847 113.968 106.643 113.688 106.462C110.369 104.385 100.277 99.4752 109.201 95.5451C115.839 92.6274 122.499 89.7615 129.178 86.9474C133.44 85.1521 137.046 85.385 136.37 90.8192C135.469 98.0519 134.673 105.291 133.983 112.537C133.215 120.63 126.678 115.06 123.4 113.546C123.038 113.378 122.731 113.439 122.478 113.73C107.428 131.12 90.0325 149.742 80.5149 170.479C80.2281 171.1 80.3647 171.204 80.9247 170.789C94.9603 160.523 107.592 146.821 120.07 134.846C127.56 127.655 161.911 99.4849 172.699 107.937C178.118 112.178 175.157 120.756 172.022 125.715C160.241 144.337 142.937 164.065 129.496 179.183C125.917 183.207 122.775 187.115 120.07 190.906C119.599 191.579 119.719 191.692 120.429 191.245C142.333 177.582 160.978 160.649 180.833 144.599C185.126 141.134 195.944 132.847 201.866 135.749C214.6 141.969 190.238 165.433 184.296 170.683C181.816 172.876 177.462 171.352 179.317 168.169C182.684 162.412 186.034 156.648 189.367 150.877C189.702 150.301 189.586 150.204 189.019 150.586Z" fill="#417586"/>
<path d="M173.809 178.309C174.947 179.283 177.047 178.687 178.499 176.978C179.951 175.268 180.206 173.092 179.067 172.119C177.929 171.145 175.829 171.741 174.377 173.45C172.924 175.16 172.67 177.335 173.809 178.309Z" fill="#417586"/>
<path d="M167.99 184.955C169.129 185.929 171.229 185.332 172.681 183.623C174.133 181.913 174.387 179.738 173.249 178.764C172.11 177.79 170.01 178.386 168.558 180.095C167.106 181.805 166.852 183.981 167.99 184.955Z" fill="#417586"/>
<path d="M161.971 191.801C163.109 192.775 165.209 192.179 166.661 190.469C168.113 188.759 168.368 186.584 167.229 185.61C166.091 184.636 163.991 185.232 162.539 186.942C161.087 188.651 160.832 190.827 161.971 191.801Z" fill="#417586"/>
<path d="M156.269 197.933C157.306 198.82 159.217 198.277 160.539 196.721C161.861 195.165 162.092 193.185 161.056 192.298C160.02 191.412 158.108 191.954 156.786 193.511C155.465 195.067 155.233 197.047 156.269 197.933Z" fill="#417586"/>
<path d="M151.035 203.52C152.006 204.351 153.798 203.843 155.037 202.384C156.276 200.925 156.493 199.069 155.521 198.238C154.55 197.407 152.758 197.916 151.519 199.375C150.281 200.833 150.064 202.689 151.035 203.52Z" fill="#417586"/>
<circle cx="133.5" cy="147.5" r="89.8" stroke="#417586" stroke-width="9.4"/>
</svg>
